<svg xmlns="http://www.w3.org/2000/svg" width="900" height="520" viewBox="0 0 900 520">
  <title>Apartment 4F preview</title>
  <rect width="900" height="520" fill="#b6e5ff"/>
  <rect y="340" width="900" height="180" fill="#74b65a"/>
  <rect x="205" y="95" width="490" height="310" fill="#7f5537"/>
  <rect x="225" y="115" width="450" height="270" fill="#d8a678"/>

  <g fill="#6f4b30">
    <rect x="220" y="165" width="460" height="8"/>
    <rect x="220" y="223" width="460" height="8"/>
    <rect x="220" y="281" width="460" height="8"/>
    <rect x="220" y="339" width="460" height="8"/>
  </g>

  <g fill="#7ac8e8">
    <rect x="260" y="130" width="42" height="28"/>
    <rect x="332" y="130" width="42" height="28"/>
    <rect x="404" y="130" width="42" height="28"/>
    <rect x="476" y="130" width="42" height="28"/>
    <rect x="548" y="130" width="42" height="28"/>
    <rect x="620" y="130" width="42" height="28"/>

    <rect x="260" y="188" width="42" height="28"/>
    <rect x="332" y="188" width="42" height="28"/>
    <rect x="404" y="188" width="42" height="28"/>
    <rect x="476" y="188" width="42" height="28"/>
    <rect x="548" y="188" width="42" height="28"/>
    <rect x="620" y="188" width="42" height="28"/>

    <rect x="260" y="246" width="42" height="28"/>
    <rect x="332" y="246" width="42" height="28"/>
    <rect x="404" y="246" width="42" height="28"/>
    <rect x="476" y="246" width="42" height="28"/>
    <rect x="548" y="246" width="42" height="28"/>
    <rect x="620" y="246" width="42" height="28"/>

    <rect x="260" y="304" width="42" height="28"/>
    <rect x="332" y="304" width="42" height="28"/>
    <rect x="404" y="304" width="42" height="28"/>
    <rect x="476" y="304" width="42" height="28"/>
    <rect x="548" y="304" width="42" height="28"/>
    <rect x="620" y="304" width="42" height="28"/>
  </g>

  <rect x="434" y="312" width="32" height="72" fill="#5a3b26"/>
  <rect x="422" y="402" width="56" height="16" fill="#8e6f3e"/>
</svg>
